<?xml version="1.0" encoding="UTF-8"?>
<svg xmlns="http://www.w3.org/2000/svg" viewBox="0 0 32 32" width="32" height="32">
  <defs>
    <linearGradient id="fg" x1="0%" y1="0%" x2="100%" y2="100%">
      <stop offset="0%" stop-color="#14b8a6"/>
      <stop offset="100%" stop-color="#0d9488"/>
    </linearGradient>
  </defs>
  <!-- Shield shape -->
  <path d="M16 2 L28 7 C28 7 29 17.5 24 23 C20.5 27 16 30 16 30 C16 30 11.5 27 8 23 C3 17.5 4 7 4 7 Z"
        fill="url(#fg)"/>
  <!-- Shield inner -->
  <path d="M16 5 L26 9 C26 9 27 17 22.5 21.5 C19.5 24.5 16 27 16 27 C16 27 12.5 24.5 9.5 21.5 C5 17 6 9 6 9 Z"
        fill="#0f172a"/>
  <!-- Simplified lock -->
  <rect x="12" y="17" width="8" height="7" rx="1.5" fill="#14b8a6"/>
  <path d="M13.5 17 L13.5 14.5 C13.5 12.5 14.5 11.5 16 11.5 C17.5 11.5 18.5 12.5 18.5 14.5 L18.5 17"
        fill="none" stroke="#14b8a6" stroke-width="2" stroke-linecap="round"/>
  <!-- Keyhole -->
  <circle cx="16" cy="20" r="1.5" fill="#0f172a"/>
  <rect x="15.5" y="20" width="1" height="2.5" rx="0.5" fill="#0f172a"/>
</svg>
